G04 #@! TF.FileFunction,Profile,NP*
%FSLAX46Y46*%
G04 Gerber Fmt 4.6, Leading zero omitted, Abs format (unit mm)*
G04 Created by KiCad (PCBNEW 4.0.7-e2-6376~61~ubuntu18.04.1) date Wed May 30 21:50:51 2018*
%MOMM*%
%LPD*%
G01*
G04 APERTURE LIST*
%ADD10C,0.100000*%
%ADD11C,0.150000*%
G04 APERTURE END LIST*
D10*
D11*
X157000000Y-76100000D02*
X157100000Y-75800000D01*
X156900000Y-81200000D02*
X157000000Y-76100000D01*
X154100000Y-84200000D02*
X156900000Y-81200000D01*
X151700000Y-85000000D02*
X154100000Y-84200000D01*
X147200000Y-86100000D02*
X151700000Y-85000000D01*
X144300000Y-86700000D02*
X147200000Y-86100000D01*
X140600000Y-87300000D02*
X144300000Y-86700000D01*
X138200000Y-87500000D02*
X140600000Y-87300000D01*
X134600000Y-87600000D02*
X138200000Y-87500000D01*
X132300000Y-87600000D02*
X134600000Y-87600000D01*
X129600000Y-87500000D02*
X132300000Y-87600000D01*
X127700000Y-87400000D02*
X129600000Y-87500000D01*
X123800000Y-86800000D02*
X127700000Y-87400000D01*
X120000000Y-86000000D02*
X123800000Y-86800000D01*
X115400000Y-85000000D02*
X120000000Y-86000000D01*
X113300000Y-84500000D02*
X115400000Y-85000000D01*
X111400000Y-83900000D02*
X113300000Y-84500000D01*
X109200000Y-83000000D02*
X111400000Y-83900000D01*
X109300000Y-76800000D02*
X109200000Y-83000000D01*
X109200000Y-76500000D02*
X109300000Y-76800000D01*
X109100000Y-76400000D02*
X109200000Y-76500000D01*
X108700000Y-76500000D02*
X109100000Y-76400000D01*
X107100000Y-77100000D02*
X108700000Y-76500000D01*
X105300000Y-78000000D02*
X107100000Y-77100000D01*
X103900000Y-78700000D02*
X105300000Y-78000000D01*
X102400000Y-79800000D02*
X103900000Y-78700000D01*
X101100000Y-81100000D02*
X102400000Y-79800000D01*
X100600000Y-81600000D02*
X101100000Y-81100000D01*
X100400000Y-82000000D02*
X100600000Y-81600000D01*
X100300000Y-82500000D02*
X100400000Y-82000000D01*
X100400000Y-82700000D02*
X100300000Y-82500000D01*
X100700000Y-82900000D02*
X100400000Y-82700000D01*
X101600000Y-84300000D02*
X100700000Y-82900000D01*
X102000000Y-85000000D02*
X101600000Y-84300000D01*
X102500000Y-85900000D02*
X102000000Y-85000000D01*
X102700000Y-86500000D02*
X102500000Y-85900000D01*
X101500000Y-88400000D02*
X102700000Y-86500000D01*
X101100000Y-88800000D02*
X101500000Y-88400000D01*
X100900000Y-89200000D02*
X101100000Y-88800000D01*
X100900000Y-89700000D02*
X100900000Y-89200000D01*
X101100000Y-90400000D02*
X100900000Y-89700000D01*
X102400000Y-92600000D02*
X101100000Y-90400000D01*
X103100000Y-93900000D02*
X102400000Y-92600000D01*
X104200000Y-96000000D02*
X103100000Y-93900000D01*
X104700000Y-97100000D02*
X104200000Y-96000000D01*
X105200000Y-98200000D02*
X104700000Y-97100000D01*
X105400000Y-99500000D02*
X105200000Y-98200000D01*
X105700000Y-101500000D02*
X105400000Y-99500000D01*
X105900000Y-103700000D02*
X105700000Y-101500000D01*
X106000000Y-106300000D02*
X105900000Y-103700000D01*
X106000000Y-109300000D02*
X106000000Y-106300000D01*
X105900000Y-111800000D02*
X106000000Y-109300000D01*
X105800000Y-113800000D02*
X105900000Y-111800000D01*
X105500000Y-116400000D02*
X105800000Y-113800000D01*
X105100000Y-118800000D02*
X105500000Y-116400000D01*
X104700000Y-120800000D02*
X105100000Y-118800000D01*
X104100000Y-123200000D02*
X104700000Y-120800000D01*
X103200000Y-126000000D02*
X104100000Y-123200000D01*
X102100000Y-130600000D02*
X103200000Y-126000000D01*
X102000000Y-131200000D02*
X102100000Y-130600000D01*
X102100000Y-131500000D02*
X102000000Y-131200000D01*
X102400000Y-131600000D02*
X102100000Y-131500000D01*
X103500000Y-131300000D02*
X102400000Y-131600000D01*
X107800000Y-130200000D02*
X103500000Y-131300000D01*
X114100000Y-128600000D02*
X107800000Y-130200000D01*
X116900000Y-127900000D02*
X114100000Y-128600000D01*
X122000000Y-126500000D02*
X116900000Y-127900000D01*
X124900000Y-125600000D02*
X122000000Y-126500000D01*
X127800000Y-124600000D02*
X124900000Y-125600000D01*
X132600000Y-122600000D02*
X127800000Y-124600000D01*
X135300000Y-121400000D02*
X132600000Y-122600000D01*
X137700000Y-120300000D02*
X135300000Y-121400000D01*
X140200000Y-119000000D02*
X137700000Y-120300000D01*
X142400000Y-117800000D02*
X140200000Y-119000000D01*
X146000000Y-115400000D02*
X142400000Y-117800000D01*
X149500000Y-112800000D02*
X146000000Y-115400000D01*
X153000000Y-110000000D02*
X149500000Y-112800000D01*
X156000000Y-107400000D02*
X153000000Y-110000000D01*
X158300000Y-105200000D02*
X156000000Y-107400000D01*
X160100000Y-103100000D02*
X158300000Y-105200000D01*
X161800000Y-101000000D02*
X160100000Y-103100000D01*
X163200000Y-99100000D02*
X161800000Y-101000000D01*
X165000000Y-96400000D02*
X163200000Y-99100000D01*
X165700000Y-95200000D02*
X165000000Y-96400000D01*
X166200000Y-94300000D02*
X165700000Y-95200000D01*
X166300000Y-94000000D02*
X166200000Y-94300000D01*
X165000000Y-89800000D02*
X166300000Y-94000000D01*
X164600000Y-88400000D02*
X165000000Y-89800000D01*
X164500000Y-87300000D02*
X164600000Y-88400000D01*
X164500000Y-86200000D02*
X164500000Y-87300000D01*
X164800000Y-85200000D02*
X164500000Y-86200000D01*
X165400000Y-84000000D02*
X164800000Y-85200000D01*
X166000000Y-82900000D02*
X165400000Y-84000000D01*
X166400000Y-82100000D02*
X166000000Y-82900000D01*
X167000000Y-81300000D02*
X166400000Y-82100000D01*
X167300000Y-81000000D02*
X167000000Y-81300000D01*
X167300000Y-80700000D02*
X167300000Y-81000000D01*
X166800000Y-80100000D02*
X167300000Y-80700000D01*
X165300000Y-79000000D02*
X166800000Y-80100000D01*
X163800000Y-78100000D02*
X165300000Y-79000000D01*
X162200000Y-77300000D02*
X163800000Y-78100000D01*
X160700000Y-76700000D02*
X162200000Y-77300000D01*
X159300000Y-76200000D02*
X160700000Y-76700000D01*
X158300000Y-75900000D02*
X159300000Y-76200000D01*
X157700000Y-75800000D02*
X158300000Y-75900000D01*
X157100000Y-75800000D02*
X157700000Y-75800000D01*
M02*
