M48
;DRILL file {KiCad 4.0.7-e2-6376~61~ubuntu18.04.1} date Wed May 30 21:50:54 2018
;FORMAT={-:-/ absolute / inch / decimal}
FMAT,2
INCH,TZ
T1C0.013
T2C0.087
%
G90
G05
M72
T1
X4.1004Y-3.4213
X4.124Y-5.0512
X4.1949Y-3.7244
X4.1949Y-4.7165
X4.2146Y-4.3504
X4.3012Y-3.9961
X4.4665Y-3.5512
X4.6161Y-4.9488
X5.0059Y-3.8976
X5.0689Y-3.6299
X5.0846Y-4.7992
X5.3366Y-3.7047
X5.3366Y-3.7835
X5.435Y-3.9606
X5.4587Y-3.8976
X5.4744Y-3.9331
X5.5138Y-3.622
X5.5177Y-4.6063
X5.8839Y-4.3346
X6.0138Y-3.4961
X6.187Y-4.0315
X6.2736Y-3.6811
T2
X4.4626Y-4.3425
X4.8484Y-3.5591
X5.372Y-4.3957
X5.7953Y-3.6024
T0
M30
