G04 #@! TF.FileFunction,Paste,Top*
%FSLAX46Y46*%
G04 Gerber Fmt 4.6, Leading zero omitted, Abs format (unit mm)*
G04 Created by KiCad (PCBNEW 4.0.7-e2-6376~61~ubuntu18.04.1) date Wed May 30 21:50:51 2018*
%MOMM*%
%LPD*%
G01*
G04 APERTURE LIST*
%ADD10C,0.100000*%
%ADD11R,1.750000X0.450000*%
%ADD12R,1.200000X1.200000*%
%ADD13R,0.700000X1.300000*%
G04 APERTURE END LIST*
D10*
G36*
X131727817Y-118473655D02*
X132576345Y-119322183D01*
X131727817Y-120170711D01*
X130879289Y-119322183D01*
X131727817Y-118473655D01*
X131727817Y-118473655D01*
G37*
G36*
X130172183Y-120029289D02*
X131020711Y-120877817D01*
X130172183Y-121726345D01*
X129323655Y-120877817D01*
X130172183Y-120029289D01*
X130172183Y-120029289D01*
G37*
G36*
X142727817Y-113573655D02*
X143576345Y-114422183D01*
X142727817Y-115270711D01*
X141879289Y-114422183D01*
X142727817Y-113573655D01*
X142727817Y-113573655D01*
G37*
G36*
X141172183Y-115129289D02*
X142020711Y-115977817D01*
X141172183Y-116826345D01*
X140323655Y-115977817D01*
X141172183Y-115129289D01*
X141172183Y-115129289D01*
G37*
G36*
X152127817Y-106573655D02*
X152976345Y-107422183D01*
X152127817Y-108270711D01*
X151279289Y-107422183D01*
X152127817Y-106573655D01*
X152127817Y-106573655D01*
G37*
G36*
X150572183Y-108129289D02*
X151420711Y-108977817D01*
X150572183Y-109826345D01*
X149723655Y-108977817D01*
X150572183Y-108129289D01*
X150572183Y-108129289D01*
G37*
G36*
X159850000Y-98951472D02*
X160698528Y-99800000D01*
X159850000Y-100648528D01*
X159001472Y-99800000D01*
X159850000Y-98951472D01*
X159850000Y-98951472D01*
G37*
G36*
X158294366Y-100507106D02*
X159142894Y-101355634D01*
X158294366Y-102204162D01*
X157445838Y-101355634D01*
X158294366Y-100507106D01*
X158294366Y-100507106D01*
G37*
G36*
X161927817Y-90073655D02*
X162776345Y-90922183D01*
X161927817Y-91770711D01*
X161079289Y-90922183D01*
X161927817Y-90073655D01*
X161927817Y-90073655D01*
G37*
G36*
X160372183Y-91629289D02*
X161220711Y-92477817D01*
X160372183Y-93326345D01*
X159523655Y-92477817D01*
X160372183Y-91629289D01*
X160372183Y-91629289D01*
G37*
G36*
X155450000Y-85351472D02*
X156298528Y-86200000D01*
X155450000Y-87048528D01*
X154601472Y-86200000D01*
X155450000Y-85351472D01*
X155450000Y-85351472D01*
G37*
G36*
X153894366Y-86907106D02*
X154742894Y-87755634D01*
X153894366Y-88604162D01*
X153045838Y-87755634D01*
X153894366Y-86907106D01*
X153894366Y-86907106D01*
G37*
G36*
X142727817Y-88573655D02*
X143576345Y-89422183D01*
X142727817Y-90270711D01*
X141879289Y-89422183D01*
X142727817Y-88573655D01*
X142727817Y-88573655D01*
G37*
G36*
X141172183Y-90129289D02*
X142020711Y-90977817D01*
X141172183Y-91826345D01*
X140323655Y-90977817D01*
X141172183Y-90129289D01*
X141172183Y-90129289D01*
G37*
G36*
X131427817Y-88773655D02*
X132276345Y-89622183D01*
X131427817Y-90470711D01*
X130579289Y-89622183D01*
X131427817Y-88773655D01*
X131427817Y-88773655D01*
G37*
G36*
X129872183Y-90329289D02*
X130720711Y-91177817D01*
X129872183Y-92026345D01*
X129023655Y-91177817D01*
X129872183Y-90329289D01*
X129872183Y-90329289D01*
G37*
G36*
X116127817Y-86773655D02*
X116976345Y-87622183D01*
X116127817Y-88470711D01*
X115279289Y-87622183D01*
X116127817Y-86773655D01*
X116127817Y-86773655D01*
G37*
G36*
X114572183Y-88329289D02*
X115420711Y-89177817D01*
X114572183Y-90026345D01*
X113723655Y-89177817D01*
X114572183Y-88329289D01*
X114572183Y-88329289D01*
G37*
G36*
X106827817Y-83273655D02*
X107676345Y-84122183D01*
X106827817Y-84970711D01*
X105979289Y-84122183D01*
X106827817Y-83273655D01*
X106827817Y-83273655D01*
G37*
G36*
X105272183Y-84829289D02*
X106120711Y-85677817D01*
X105272183Y-86526345D01*
X104423655Y-85677817D01*
X105272183Y-84829289D01*
X105272183Y-84829289D01*
G37*
G36*
X106827817Y-91073655D02*
X107676345Y-91922183D01*
X106827817Y-92770711D01*
X105979289Y-91922183D01*
X106827817Y-91073655D01*
X106827817Y-91073655D01*
G37*
G36*
X105272183Y-92629289D02*
X106120711Y-93477817D01*
X105272183Y-94326345D01*
X104423655Y-93477817D01*
X105272183Y-92629289D01*
X105272183Y-92629289D01*
G37*
G36*
X109727817Y-98073655D02*
X110576345Y-98922183D01*
X109727817Y-99770711D01*
X108879289Y-98922183D01*
X109727817Y-98073655D01*
X109727817Y-98073655D01*
G37*
G36*
X108172183Y-99629289D02*
X109020711Y-100477817D01*
X108172183Y-101326345D01*
X107323655Y-100477817D01*
X108172183Y-99629289D01*
X108172183Y-99629289D01*
G37*
G36*
X109727817Y-106973655D02*
X110576345Y-107822183D01*
X109727817Y-108670711D01*
X108879289Y-107822183D01*
X109727817Y-106973655D01*
X109727817Y-106973655D01*
G37*
G36*
X108172183Y-108529289D02*
X109020711Y-109377817D01*
X108172183Y-110226345D01*
X107323655Y-109377817D01*
X108172183Y-108529289D01*
X108172183Y-108529289D01*
G37*
G36*
X109127817Y-116373655D02*
X109976345Y-117222183D01*
X109127817Y-118070711D01*
X108279289Y-117222183D01*
X109127817Y-116373655D01*
X109127817Y-116373655D01*
G37*
G36*
X107572183Y-117929289D02*
X108420711Y-118777817D01*
X107572183Y-119626345D01*
X106723655Y-118777817D01*
X107572183Y-117929289D01*
X107572183Y-117929289D01*
G37*
G36*
X108227817Y-125473655D02*
X109076345Y-126322183D01*
X108227817Y-127170711D01*
X107379289Y-126322183D01*
X108227817Y-125473655D01*
X108227817Y-125473655D01*
G37*
G36*
X106672183Y-127029289D02*
X107520711Y-127877817D01*
X106672183Y-128726345D01*
X105823655Y-127877817D01*
X106672183Y-127029289D01*
X106672183Y-127029289D01*
G37*
G36*
X119805634Y-122295838D02*
X120654162Y-123144366D01*
X119805634Y-123992894D01*
X118957106Y-123144366D01*
X119805634Y-122295838D01*
X119805634Y-122295838D01*
G37*
G36*
X118250000Y-123851472D02*
X119098528Y-124700000D01*
X118250000Y-125548528D01*
X117401472Y-124700000D01*
X118250000Y-123851472D01*
X118250000Y-123851472D01*
G37*
D11*
X136050000Y-106825000D03*
X136050000Y-106175000D03*
X136050000Y-105525000D03*
X136050000Y-104875000D03*
X136050000Y-104225000D03*
X136050000Y-103575000D03*
X136050000Y-102925000D03*
X136050000Y-102275000D03*
X136050000Y-101625000D03*
X136050000Y-100975000D03*
X136050000Y-100325000D03*
X136050000Y-99675000D03*
X136050000Y-99025000D03*
X136050000Y-98375000D03*
X128850000Y-98375000D03*
X128850000Y-99025000D03*
X128850000Y-99675000D03*
X128850000Y-100325000D03*
X128850000Y-100975000D03*
X128850000Y-101625000D03*
X128850000Y-102275000D03*
X128850000Y-102925000D03*
X128850000Y-103575000D03*
X128850000Y-104225000D03*
X128850000Y-104875000D03*
X128850000Y-105525000D03*
X128850000Y-106175000D03*
X128850000Y-106825000D03*
D12*
X133381650Y-96098721D03*
X131281650Y-96098721D03*
X133381647Y-94098724D03*
X131281647Y-94098724D03*
D13*
X121272320Y-110351244D03*
X119372320Y-110351244D03*
X121272321Y-108351242D03*
X119372321Y-108351242D03*
X121272319Y-106351242D03*
X119372319Y-106351242D03*
X121272320Y-104351244D03*
X119372320Y-104351244D03*
X121272320Y-102351244D03*
X119372320Y-102351244D03*
X121272320Y-100351244D03*
X119372320Y-100351244D03*
X121272319Y-98351245D03*
X119372319Y-98351245D03*
X121272320Y-96419593D03*
X119372320Y-96419593D03*
X143700763Y-95661338D03*
X145600763Y-95661338D03*
X143700765Y-97661336D03*
X145600765Y-97661336D03*
X143700768Y-99661336D03*
X145600768Y-99661336D03*
X143700763Y-101661340D03*
X145600763Y-101661340D03*
X143700766Y-103661336D03*
X145600766Y-103661336D03*
X143700765Y-105661340D03*
X145600765Y-105661340D03*
X143700764Y-107661343D03*
X145600764Y-107661343D03*
X143700761Y-109838681D03*
X145600761Y-109838681D03*
M02*
