G04 #@! TF.FileFunction,Soldermask,Bot*
%FSLAX46Y46*%
G04 Gerber Fmt 4.6, Leading zero omitted, Abs format (unit mm)*
G04 Created by KiCad (PCBNEW 4.0.7+dfsg1-1ubuntu2) date Fri May 11 22:40:51 2018*
%MOMM*%
%LPD*%
G01*
G04 APERTURE LIST*
%ADD10C,0.100000*%
%ADD11C,0.010000*%
%ADD12C,0.304800*%
%ADD13C,2.100000*%
%ADD14O,2.100000X2.100000*%
%ADD15R,2.400000X1.300000*%
%ADD16R,4.400000X4.400000*%
%ADD17R,0.800000X1.000000*%
%ADD18R,0.900000X1.000000*%
%ADD19R,1.400000X2.000000*%
%ADD20R,1.000000X0.900000*%
%ADD21R,1.799540X2.299920*%
%ADD22R,1.197560X1.898600*%
%ADD23R,2.198320X1.799540*%
%ADD24C,5.400000*%
%ADD25R,1.300000X2.350000*%
%ADD26R,1.700000X1.100000*%
%ADD27R,1.100000X1.700000*%
%ADD28R,1.000000X0.800000*%
%ADD29R,1.300000X1.200000*%
%ADD30R,1.460000X1.050000*%
%ADD31R,2.400000X4.200000*%
%ADD32R,2.400000X1.900000*%
%ADD33R,3.400000X1.600000*%
%ADD34C,1.299160*%
%ADD35R,0.450000X0.475000*%
%ADD36R,0.470000X0.495000*%
%ADD37R,0.495000X0.470000*%
%ADD38C,0.500000*%
%ADD39C,0.430000*%
%ADD40C,3.700000*%
%ADD41R,0.950000X0.700000*%
%ADD42C,2.000000*%
%ADD43R,1.400000X1.400000*%
%ADD44C,2.400000*%
%ADD45C,1.187400*%
%ADD46C,1.390600*%
G04 APERTURE END LIST*
D10*
D11*
G36*
X94605059Y-75928572D02*
X94614610Y-76200715D01*
X94649535Y-76516553D01*
X94731334Y-76777385D01*
X94861756Y-76985041D01*
X95042551Y-77141351D01*
X95275469Y-77248147D01*
X95562259Y-77307259D01*
X95681944Y-77317386D01*
X96013595Y-77336296D01*
X95991980Y-77030002D01*
X95944072Y-76703909D01*
X95850376Y-76434069D01*
X95710946Y-76220536D01*
X95525836Y-76063362D01*
X95295100Y-75962599D01*
X95018793Y-75918301D01*
X94852913Y-75917776D01*
X94605059Y-75928572D01*
X94605059Y-75928572D01*
G37*
X94605059Y-75928572D02*
X94614610Y-76200715D01*
X94649535Y-76516553D01*
X94731334Y-76777385D01*
X94861756Y-76985041D01*
X95042551Y-77141351D01*
X95275469Y-77248147D01*
X95562259Y-77307259D01*
X95681944Y-77317386D01*
X96013595Y-77336296D01*
X95991980Y-77030002D01*
X95944072Y-76703909D01*
X95850376Y-76434069D01*
X95710946Y-76220536D01*
X95525836Y-76063362D01*
X95295100Y-75962599D01*
X95018793Y-75918301D01*
X94852913Y-75917776D01*
X94605059Y-75928572D01*
G36*
X96077241Y-73650442D02*
X95760326Y-73722586D01*
X95467275Y-73835591D01*
X95210613Y-73983913D01*
X95002864Y-74162008D01*
X94900004Y-74291090D01*
X94796753Y-74484904D01*
X94709452Y-74721423D01*
X94643081Y-74978471D01*
X94602616Y-75233874D01*
X94593037Y-75465456D01*
X94606662Y-75597780D01*
X94625463Y-75677508D01*
X94657134Y-75715245D01*
X94724018Y-75725697D01*
X94799598Y-75724759D01*
X94941393Y-75715599D01*
X95100565Y-75697521D01*
X95158514Y-75688758D01*
X95517351Y-75600782D01*
X95821981Y-75465019D01*
X96073568Y-75280590D01*
X96273275Y-75046618D01*
X96422268Y-74762226D01*
X96436507Y-74725436D01*
X96484909Y-74559047D01*
X96524606Y-74353782D01*
X96552154Y-74136698D01*
X96564108Y-73934853D01*
X96557244Y-73776929D01*
X96540356Y-73681078D01*
X96510759Y-73637218D01*
X96448318Y-73625148D01*
X96405496Y-73624704D01*
X96077241Y-73650442D01*
X96077241Y-73650442D01*
G37*
X96077241Y-73650442D02*
X95760326Y-73722586D01*
X95467275Y-73835591D01*
X95210613Y-73983913D01*
X95002864Y-74162008D01*
X94900004Y-74291090D01*
X94796753Y-74484904D01*
X94709452Y-74721423D01*
X94643081Y-74978471D01*
X94602616Y-75233874D01*
X94593037Y-75465456D01*
X94606662Y-75597780D01*
X94625463Y-75677508D01*
X94657134Y-75715245D01*
X94724018Y-75725697D01*
X94799598Y-75724759D01*
X94941393Y-75715599D01*
X95100565Y-75697521D01*
X95158514Y-75688758D01*
X95517351Y-75600782D01*
X95821981Y-75465019D01*
X96073568Y-75280590D01*
X96273275Y-75046618D01*
X96422268Y-74762226D01*
X96436507Y-74725436D01*
X96484909Y-74559047D01*
X96524606Y-74353782D01*
X96552154Y-74136698D01*
X96564108Y-73934853D01*
X96557244Y-73776929D01*
X96540356Y-73681078D01*
X96510759Y-73637218D01*
X96448318Y-73625148D01*
X96405496Y-73624704D01*
X96077241Y-73650442D01*
D12*
X111200000Y-56000000D02*
X111200000Y-54000000D01*
D13*
X154070000Y-45230000D03*
D14*
X154070000Y-47770000D03*
X151530000Y-45230000D03*
X151530000Y-47770000D03*
D10*
G36*
X159462000Y-86088000D02*
X160262000Y-88012000D01*
X157538000Y-88012000D01*
X158338000Y-86088000D01*
X159462000Y-86088000D01*
X159462000Y-86088000D01*
G37*
G36*
X156138000Y-88012000D02*
X155338000Y-86088000D01*
X158062000Y-86088000D01*
X157262000Y-88012000D01*
X156138000Y-88012000D01*
X156138000Y-88012000D01*
G37*
G36*
X153938000Y-90112000D02*
X153138000Y-88188000D01*
X155862000Y-88188000D01*
X155062000Y-90112000D01*
X153938000Y-90112000D01*
X153938000Y-90112000D01*
G37*
G36*
X157262000Y-88188000D02*
X158062000Y-90112000D01*
X155338000Y-90112000D01*
X156138000Y-88188000D01*
X157262000Y-88188000D01*
X157262000Y-88188000D01*
G37*
G36*
X152538000Y-50788000D02*
X154462000Y-49988000D01*
X154462000Y-52712000D01*
X152538000Y-51912000D01*
X152538000Y-50788000D01*
X152538000Y-50788000D01*
G37*
G36*
X154462000Y-54162000D02*
X152538000Y-54962000D01*
X152538000Y-52238000D01*
X154462000Y-53038000D01*
X154462000Y-54162000D01*
X154462000Y-54162000D01*
G37*
G36*
X152538000Y-55288000D02*
X154462000Y-54488000D01*
X154462000Y-57212000D01*
X152538000Y-56412000D01*
X152538000Y-55288000D01*
X152538000Y-55288000D01*
G37*
G36*
X140012000Y-135088000D02*
X140812000Y-137012000D01*
X138088000Y-137012000D01*
X138888000Y-135088000D01*
X140012000Y-135088000D01*
X140012000Y-135088000D01*
G37*
G36*
X141138000Y-137012000D02*
X140338000Y-135088000D01*
X143062000Y-135088000D01*
X142262000Y-137012000D01*
X141138000Y-137012000D01*
X141138000Y-137012000D01*
G37*
G36*
X144512000Y-135088000D02*
X145312000Y-137012000D01*
X142588000Y-137012000D01*
X143388000Y-135088000D01*
X144512000Y-135088000D01*
X144512000Y-135088000D01*
G37*
G36*
X143388000Y-139162000D02*
X142588000Y-137238000D01*
X145312000Y-137238000D01*
X144512000Y-139162000D01*
X143388000Y-139162000D01*
X143388000Y-139162000D01*
G37*
G36*
X142262000Y-137238000D02*
X143062000Y-139162000D01*
X140338000Y-139162000D01*
X141138000Y-137238000D01*
X142262000Y-137238000D01*
X142262000Y-137238000D01*
G37*
G36*
X138888000Y-139162000D02*
X138088000Y-137238000D01*
X140812000Y-137238000D01*
X140012000Y-139162000D01*
X138888000Y-139162000D01*
X138888000Y-139162000D01*
G37*
G36*
X126038000Y-170462000D02*
X125238000Y-168538000D01*
X127962000Y-168538000D01*
X127162000Y-170462000D01*
X126038000Y-170462000D01*
X126038000Y-170462000D01*
G37*
G36*
X127162000Y-166438000D02*
X127962000Y-168362000D01*
X125238000Y-168362000D01*
X126038000Y-166438000D01*
X127162000Y-166438000D01*
X127162000Y-166438000D01*
G37*
G36*
X123788000Y-168362000D02*
X122988000Y-166438000D01*
X125712000Y-166438000D01*
X124912000Y-168362000D01*
X123788000Y-168362000D01*
X123788000Y-168362000D01*
G37*
D15*
X134500000Y-37570000D03*
X134500000Y-38840000D03*
X134500000Y-40110000D03*
X134500000Y-41380000D03*
X134500000Y-42650000D03*
X134500000Y-43920000D03*
X134500000Y-45190000D03*
X134500000Y-46460000D03*
X134500000Y-47730000D03*
X134500000Y-49000000D03*
X134500000Y-50270000D03*
X134500000Y-51540000D03*
X134500000Y-52810000D03*
X134500000Y-54080000D03*
X134500000Y-55350000D03*
X134500000Y-56620000D03*
X134500000Y-57890000D03*
X134500000Y-59160000D03*
X134500000Y-60430000D03*
X116190000Y-37570000D03*
X116190000Y-38840000D03*
X116190000Y-40110000D03*
X116190000Y-41380000D03*
X116190000Y-45190000D03*
X116190000Y-42650000D03*
X116190000Y-43920000D03*
X116190000Y-46460000D03*
X116190000Y-47730000D03*
X116190000Y-49000000D03*
X116190000Y-50270000D03*
X116190000Y-51540000D03*
X116190000Y-52810000D03*
X116190000Y-54080000D03*
X116190000Y-55350000D03*
X116190000Y-56620000D03*
X116190000Y-57890000D03*
X116190000Y-59160000D03*
X116190000Y-60430000D03*
D16*
X126750000Y-45360000D03*
D17*
X100300000Y-120000000D03*
X101200000Y-120000000D03*
D18*
X97000000Y-83450000D03*
X97000000Y-82350000D03*
D19*
X161950000Y-71350000D03*
X164950000Y-71350000D03*
D20*
X161750000Y-69400000D03*
X162850000Y-69400000D03*
D19*
X109950000Y-156050000D03*
X112950000Y-156050000D03*
D20*
X111400000Y-154200000D03*
X112500000Y-154200000D03*
D19*
X116300000Y-156000000D03*
X119300000Y-156000000D03*
D20*
X116300000Y-154150000D03*
X117400000Y-154150000D03*
D18*
X143900000Y-41900000D03*
X143900000Y-40800000D03*
D19*
X140700000Y-38900000D03*
X143700000Y-38900000D03*
D20*
X140700000Y-36800000D03*
X141800000Y-36800000D03*
D19*
X106983406Y-129731224D03*
X103983406Y-129731224D03*
X106983408Y-132231225D03*
X103983408Y-132231225D03*
D20*
X144050000Y-123100000D03*
X145150000Y-123100000D03*
X142750000Y-123100000D03*
X141650000Y-123100000D03*
D19*
X104400000Y-116900000D03*
X107400000Y-116900000D03*
X93800000Y-115900000D03*
X96800000Y-115900000D03*
X104400000Y-119300000D03*
X107400000Y-119300000D03*
D20*
X142700000Y-121700000D03*
X141600000Y-121700000D03*
X144050000Y-121700000D03*
X145150000Y-121700000D03*
D19*
X96800000Y-118500000D03*
X93800000Y-118500000D03*
D18*
X151400000Y-116500000D03*
X151400000Y-115400000D03*
X152700000Y-116500000D03*
X152700000Y-115400000D03*
D20*
X144850000Y-108250000D03*
X145950000Y-108250000D03*
D19*
X125600000Y-70700000D03*
X128600000Y-70700000D03*
D20*
X125650000Y-68800000D03*
X126750000Y-68800000D03*
D18*
X122200000Y-66650000D03*
X122200000Y-67750000D03*
D21*
X159936220Y-69949760D03*
X146789180Y-70950520D03*
D22*
X155288020Y-73800400D03*
X154188200Y-74001060D03*
X153090920Y-73800400D03*
X151991100Y-73599740D03*
X150891280Y-73800400D03*
X149788920Y-73599740D03*
X148689100Y-73800400D03*
X147589280Y-73800400D03*
D23*
X148389380Y-84097560D03*
X154086600Y-84097560D03*
D24*
X78500000Y-71000000D03*
X173500000Y-71000000D03*
D25*
X102025000Y-113300000D03*
X99575000Y-113300000D03*
D26*
X97000000Y-85500000D03*
X97000000Y-87400000D03*
D17*
X117700000Y-141150000D03*
X116800000Y-141150000D03*
X116800000Y-135250000D03*
X117700000Y-135250000D03*
D27*
X98950000Y-80550000D03*
X97050000Y-80550000D03*
D28*
X114100000Y-143550000D03*
X114100000Y-142650000D03*
X143900000Y-44050000D03*
X143900000Y-43150000D03*
D17*
X151350000Y-109700000D03*
X152250000Y-109700000D03*
X144950000Y-88350000D03*
X144050000Y-88350000D03*
D28*
X142300000Y-107750000D03*
X142300000Y-108650000D03*
D29*
X118250000Y-139100000D03*
X118250000Y-137200000D03*
X120250000Y-138150000D03*
X114250000Y-139100000D03*
X114250000Y-137200000D03*
X116250000Y-138150000D03*
D30*
X101700000Y-115950000D03*
X101700000Y-116900000D03*
X101700000Y-117850000D03*
X99500000Y-117850000D03*
X99500000Y-115950000D03*
X99500000Y-116900000D03*
D31*
X100200000Y-124700000D03*
D32*
X106500000Y-124700000D03*
X106500000Y-127000000D03*
X106500000Y-122400000D03*
D33*
X123500000Y-140700000D03*
X128500000Y-138200000D03*
X128500000Y-140700000D03*
X128500000Y-135700000D03*
X123500000Y-138200000D03*
X123500000Y-135700000D03*
D18*
X114500000Y-82050000D03*
X114500000Y-83150000D03*
D17*
X138850000Y-45200000D03*
X139750000Y-45200000D03*
D10*
G36*
X105989900Y-160564893D02*
X109243404Y-160508103D01*
X109254796Y-161160783D01*
X106001292Y-161217573D01*
X105989900Y-160564893D01*
X105989900Y-160564893D01*
G37*
G36*
X105978551Y-159914752D02*
X109232055Y-159857962D01*
X109243447Y-160510642D01*
X105989943Y-160567432D01*
X105978551Y-159914752D01*
X105978551Y-159914752D01*
G37*
G36*
X105967247Y-159267150D02*
X109220751Y-159210360D01*
X109232143Y-159863040D01*
X105978639Y-159919830D01*
X105967247Y-159267150D01*
X105967247Y-159267150D01*
G37*
G36*
X105955943Y-158619549D02*
X109209447Y-158562759D01*
X109220839Y-159215439D01*
X105967335Y-159272229D01*
X105955943Y-158619549D01*
X105955943Y-158619549D01*
G37*
G36*
X105944595Y-157969408D02*
X109198099Y-157912618D01*
X109209491Y-158565298D01*
X105955987Y-158622088D01*
X105944595Y-157969408D01*
X105944595Y-157969408D01*
G37*
D34*
X104607454Y-162917288D02*
X103909060Y-162929478D01*
X104492287Y-156319373D02*
X103793893Y-156331563D01*
D10*
G36*
X106043416Y-163789589D02*
X106008552Y-161792233D01*
X107807818Y-161760827D01*
X107842682Y-163758183D01*
X106043416Y-163789589D01*
X106043416Y-163789589D01*
G37*
G36*
X105931795Y-157394843D02*
X105896931Y-155397487D01*
X107696197Y-155366081D01*
X107731061Y-157363437D01*
X105931795Y-157394843D01*
X105931795Y-157394843D01*
G37*
G36*
X105386371Y-161952926D02*
X103086802Y-161993065D01*
X103046663Y-159693496D01*
X105346232Y-159653357D01*
X105386371Y-161952926D01*
X105386371Y-161952926D01*
G37*
G36*
X105344525Y-159555532D02*
X103044956Y-159595671D01*
X103004817Y-157296102D01*
X105304386Y-157255963D01*
X105344525Y-159555532D01*
X105344525Y-159555532D01*
G37*
D17*
X144000000Y-83000000D03*
X144900000Y-83000000D03*
D19*
X161950000Y-73800000D03*
X164950000Y-73800000D03*
X161950000Y-76250000D03*
X164950000Y-76250000D03*
D35*
X125587500Y-65087500D03*
D36*
X126087500Y-65087500D03*
X125587500Y-66612500D03*
X126087500Y-66612500D03*
X126587500Y-65087500D03*
X126587500Y-66612500D03*
X125087500Y-65087500D03*
X125087500Y-66612500D03*
D37*
X126600000Y-65600000D03*
X126600000Y-66100000D03*
X125075000Y-66100000D03*
X125075000Y-65600000D03*
D38*
X112724899Y-150642309D02*
X112335991Y-150253401D01*
X112371345Y-150995863D02*
X111982437Y-150606955D01*
X112017792Y-151349416D02*
X111628884Y-150960508D01*
X111664239Y-151702970D02*
X111275331Y-151314062D01*
X111310685Y-152056523D02*
X110921777Y-151667615D01*
X110957132Y-152410076D02*
X110568224Y-152021168D01*
X110603578Y-152763630D02*
X110214670Y-152374722D01*
X108871168Y-152763630D02*
X109260076Y-152374722D01*
X108517614Y-152410076D02*
X108906522Y-152021168D01*
X108164061Y-152056523D02*
X108552969Y-151667615D01*
X107810507Y-151702970D02*
X108199415Y-151314062D01*
X107456954Y-151349416D02*
X107845862Y-150960508D01*
X107103401Y-150995863D02*
X107492309Y-150606955D01*
X106749847Y-150642309D02*
X107138755Y-150253401D01*
X107138755Y-149298807D02*
X106749847Y-148909899D01*
X107492309Y-148945253D02*
X107103401Y-148556345D01*
X107845862Y-148591700D02*
X107456954Y-148202792D01*
X108199415Y-148238146D02*
X107810507Y-147849238D01*
X108552969Y-147884593D02*
X108164061Y-147495685D01*
X108906522Y-147531040D02*
X108517614Y-147142132D01*
X109260076Y-147177486D02*
X108871168Y-146788578D01*
X110214670Y-147177486D02*
X110603578Y-146788578D01*
X110568224Y-147531040D02*
X110957132Y-147142132D01*
X110921777Y-147884593D02*
X111310685Y-147495685D01*
X111275331Y-148238146D02*
X111664239Y-147849238D01*
X111628884Y-148591700D02*
X112017792Y-148202792D01*
X111982437Y-148945253D02*
X112371345Y-148556345D01*
X112335991Y-149298807D02*
X112724899Y-148909899D01*
D10*
G36*
X109878794Y-149776104D02*
X108552969Y-151101929D01*
X107227144Y-149776104D01*
X108552969Y-148450279D01*
X109878794Y-149776104D01*
X109878794Y-149776104D01*
G37*
G36*
X111063198Y-148591700D02*
X109737373Y-149917525D01*
X108411548Y-148591700D01*
X109737373Y-147265875D01*
X111063198Y-148591700D01*
X111063198Y-148591700D01*
G37*
G36*
X111063198Y-150960508D02*
X109737373Y-152286333D01*
X108411548Y-150960508D01*
X109737373Y-149634683D01*
X111063198Y-150960508D01*
X111063198Y-150960508D01*
G37*
G36*
X112247602Y-149776104D02*
X110921777Y-151101929D01*
X109595952Y-149776104D01*
X110921777Y-148450279D01*
X112247602Y-149776104D01*
X112247602Y-149776104D01*
G37*
D39*
X99549260Y-84096316D02*
X99800282Y-84347338D01*
X100500318Y-84749682D02*
X100044234Y-85205766D01*
X100217475Y-84466839D02*
X99761391Y-84922923D01*
X100783161Y-85032525D02*
X100327077Y-85488609D01*
X99832102Y-83813473D02*
X100083124Y-84064495D01*
X100956402Y-82675031D02*
X101207424Y-82926053D01*
X101239245Y-82392189D02*
X101490267Y-82643211D01*
X102072923Y-82611391D02*
X101616839Y-83067475D01*
X102355766Y-82894234D02*
X101899682Y-83350318D01*
X102638609Y-83177077D02*
X102182525Y-83633161D01*
X100909733Y-85456789D02*
X101160755Y-85707811D01*
X101192576Y-85173947D02*
X101443598Y-85424969D01*
X102606789Y-83759733D02*
X102857811Y-84010755D01*
X102323947Y-84042576D02*
X102574969Y-84293598D01*
X100107873Y-83523559D02*
X100705379Y-84121065D01*
X101270357Y-84686042D02*
X101726441Y-85142126D01*
X101553200Y-84403200D02*
X102009284Y-84859284D01*
X101836042Y-84120357D02*
X102292126Y-84576441D01*
X100390716Y-83240716D02*
X100846800Y-83696800D01*
X100673559Y-82957874D02*
X101129643Y-83413958D01*
D40*
X141100000Y-148900000D03*
X130350000Y-169050000D03*
X107250000Y-167700000D03*
X117050000Y-147800000D03*
D17*
X104600000Y-150550000D03*
X103700000Y-150550000D03*
D41*
X110700000Y-160700001D03*
X110700000Y-161350001D03*
D17*
X104600000Y-153450000D03*
X103700000Y-153450000D03*
X103700000Y-152000000D03*
X104600000Y-152000000D03*
D41*
X111099995Y-159399997D03*
X111099995Y-158749997D03*
X113700000Y-159525000D03*
X113700000Y-158875000D03*
D10*
G36*
X121588000Y-170462000D02*
X120788000Y-168538000D01*
X123512000Y-168538000D01*
X122712000Y-170462000D01*
X121588000Y-170462000D01*
X121588000Y-170462000D01*
G37*
G36*
X124912000Y-168538000D02*
X125712000Y-170462000D01*
X122988000Y-170462000D01*
X123788000Y-168538000D01*
X124912000Y-168538000D01*
X124912000Y-168538000D01*
G37*
G36*
X155062000Y-86088000D02*
X155862000Y-88012000D01*
X153138000Y-88012000D01*
X153938000Y-86088000D01*
X155062000Y-86088000D01*
X155062000Y-86088000D01*
G37*
G36*
X158338000Y-90112000D02*
X157538000Y-88188000D01*
X160262000Y-88188000D01*
X159462000Y-90112000D01*
X158338000Y-90112000D01*
X158338000Y-90112000D01*
G37*
D42*
X118700000Y-127600000D03*
X131700000Y-127600000D03*
D13*
X102270000Y-45330000D03*
D14*
X102270000Y-47870000D03*
X99730000Y-45330000D03*
X99730000Y-47870000D03*
D17*
X107238031Y-78636737D03*
X106338031Y-78636737D03*
X107238032Y-80800000D03*
X106338032Y-80800000D03*
X139750000Y-69550000D03*
X140650000Y-69550000D03*
X139750000Y-67300000D03*
X140650000Y-67300000D03*
D10*
G36*
X122662000Y-166438000D02*
X123462000Y-168362000D01*
X120738000Y-168362000D01*
X121538000Y-166438000D01*
X122662000Y-166438000D01*
X122662000Y-166438000D01*
G37*
D17*
X144000000Y-81200000D03*
X144900000Y-81200000D03*
X143950000Y-72500000D03*
X144850000Y-72500000D03*
X143950000Y-74500000D03*
X144850000Y-74500000D03*
X143950000Y-76200000D03*
X144850000Y-76200000D03*
X143950000Y-77800000D03*
X144850000Y-77800000D03*
X143950000Y-79500000D03*
X144850000Y-79500000D03*
D43*
X111200000Y-54000000D03*
X111200000Y-56000000D03*
D44*
X152300000Y-59400000D03*
X152300000Y-96600000D03*
X101600000Y-59400000D03*
X101600000Y-96600000D03*
D45*
X116670000Y-163860000D03*
X116670000Y-165130000D03*
X116670000Y-166400000D03*
X116670000Y-167670000D03*
X116670000Y-168940000D03*
X115400000Y-168940000D03*
X115400000Y-167670000D03*
X115400000Y-166400000D03*
X115400000Y-165130000D03*
X115400000Y-163860000D03*
D46*
X116035000Y-162590000D03*
X115019000Y-170210000D03*
X117051000Y-170210000D03*
M02*
