G04 #@! TF.FileFunction,Paste,Top*
%FSLAX46Y46*%
G04 Gerber Fmt 4.6, Leading zero omitted, Abs format (unit mm)*
G04 Created by KiCad (PCBNEW 4.0.7+dfsg1-1ubuntu2) date Fri May 11 22:40:50 2018*
%MOMM*%
%LPD*%
G01*
G04 APERTURE LIST*
%ADD10C,0.100000*%
%ADD11R,1.198880X1.198880*%
%ADD12R,1.500000X0.647700*%
%ADD13O,0.680000X0.160000*%
%ADD14O,0.160000X0.680000*%
%ADD15R,0.828000X0.828000*%
%ADD16R,0.650000X0.800000*%
%ADD17R,0.700000X1.300000*%
%ADD18R,3.200000X0.500000*%
G04 APERTURE END LIST*
D10*
D11*
X113049020Y-115950000D03*
X110950980Y-115950000D03*
D12*
X86972640Y-76251160D03*
X91372640Y-76251160D03*
X86972640Y-78400000D03*
X91372640Y-78400000D03*
X82827360Y-80200000D03*
X87227360Y-80200000D03*
X82827360Y-82348840D03*
X87227360Y-82348840D03*
X87072640Y-84300000D03*
X91472640Y-84300000D03*
X87072640Y-86448840D03*
X91472640Y-86448840D03*
X91172640Y-80251160D03*
X95572640Y-80251160D03*
X91172640Y-82400000D03*
X95572640Y-82400000D03*
X138200000Y-102574420D03*
X133800000Y-102574420D03*
X138200000Y-100425580D03*
X133800000Y-100425580D03*
X160600000Y-88000000D03*
X165000000Y-88000000D03*
X160600000Y-90148840D03*
X165000000Y-90148840D03*
X113800000Y-100425580D03*
X118200000Y-100425580D03*
X113800000Y-102574420D03*
X118200000Y-102574420D03*
D13*
X140950000Y-113750000D03*
X140950000Y-114150000D03*
X140950000Y-114550000D03*
X140950000Y-114950000D03*
X140950000Y-115350000D03*
X140950000Y-115750000D03*
X140950000Y-116150000D03*
X140950000Y-116550000D03*
X140950000Y-116950000D03*
X140950000Y-117350000D03*
D14*
X141600000Y-118000000D03*
X142000000Y-118000000D03*
X142400000Y-118000000D03*
X142800000Y-118000000D03*
X143200000Y-118000000D03*
X143600000Y-118000000D03*
X144000000Y-118000000D03*
X144400000Y-118000000D03*
X144800000Y-118000000D03*
X145200000Y-118000000D03*
D13*
X145850000Y-117350000D03*
X145850000Y-116950000D03*
X145850000Y-116550000D03*
X145850000Y-116150000D03*
X145850000Y-115750000D03*
X145850000Y-115350000D03*
X145850000Y-114950000D03*
X145850000Y-114550000D03*
X145850000Y-114150000D03*
X145850000Y-113750000D03*
D14*
X145200000Y-113100000D03*
X144800000Y-113100000D03*
X144400000Y-113100000D03*
X144000000Y-113100000D03*
X143600000Y-113100000D03*
X143200000Y-113100000D03*
X142800000Y-113100000D03*
X142400000Y-113100000D03*
X142000000Y-113100000D03*
X141600000Y-113100000D03*
D15*
X144300000Y-116450000D03*
X144300000Y-114650000D03*
X142500000Y-116450000D03*
X142500000Y-114650000D03*
D16*
X168175000Y-92650000D03*
X169025000Y-94150000D03*
X169025000Y-92650000D03*
X168175000Y-94150000D03*
X72825000Y-77750000D03*
X73675000Y-79250000D03*
X73675000Y-77750000D03*
X72825000Y-79250000D03*
X97575000Y-101750000D03*
X98425000Y-103250000D03*
X98425000Y-101750000D03*
X97575000Y-103250000D03*
X148825000Y-103800000D03*
X149675000Y-105300000D03*
X149675000Y-103800000D03*
X148825000Y-105300000D03*
X179075000Y-77750000D03*
X179925000Y-79250000D03*
X179925000Y-77750000D03*
X179075000Y-79250000D03*
X74975000Y-81100000D03*
X75825000Y-82600000D03*
X75825000Y-81100000D03*
X74975000Y-82600000D03*
X77175000Y-84450000D03*
X78025000Y-85950000D03*
X78025000Y-84450000D03*
X77175000Y-85950000D03*
X79575000Y-87750000D03*
X80425000Y-89250000D03*
X80425000Y-87750000D03*
X79575000Y-89250000D03*
X82225000Y-91050000D03*
X83075000Y-92550000D03*
X83075000Y-91050000D03*
X82225000Y-92550000D03*
X84925000Y-93950000D03*
X85775000Y-95450000D03*
X85775000Y-93950000D03*
X84925000Y-95450000D03*
X88075000Y-96250000D03*
X88925000Y-97750000D03*
X88925000Y-96250000D03*
X88075000Y-97750000D03*
X91075000Y-98250000D03*
X91925000Y-99750000D03*
X91925000Y-98250000D03*
X91075000Y-99750000D03*
X94075000Y-100250000D03*
X94925000Y-101750000D03*
X94925000Y-100250000D03*
X94075000Y-101750000D03*
X129850000Y-105450000D03*
X130700000Y-106950000D03*
X130700000Y-105450000D03*
X129850000Y-106950000D03*
X104075000Y-103500000D03*
X104925000Y-105000000D03*
X104925000Y-103500000D03*
X104075000Y-105000000D03*
X107075000Y-104000000D03*
X107925000Y-105500000D03*
X107925000Y-104000000D03*
X107075000Y-105500000D03*
X110475000Y-104750000D03*
X111325000Y-106250000D03*
X111325000Y-104750000D03*
X110475000Y-106250000D03*
X122950000Y-105500000D03*
X123800000Y-107000000D03*
X123800000Y-105500000D03*
X122950000Y-107000000D03*
X126600000Y-105450000D03*
X127450000Y-106950000D03*
X127450000Y-105450000D03*
X126600000Y-106950000D03*
X142275000Y-104900000D03*
X143125000Y-106400000D03*
X143125000Y-104900000D03*
X142275000Y-106400000D03*
X163225000Y-97100000D03*
X164075000Y-98600000D03*
X164075000Y-97100000D03*
X163225000Y-98600000D03*
X145575000Y-104450000D03*
X146425000Y-105950000D03*
X146425000Y-104450000D03*
X145575000Y-105950000D03*
X175025000Y-84200000D03*
X175875000Y-85700000D03*
X175875000Y-84200000D03*
X175025000Y-85700000D03*
X151775000Y-103050000D03*
X152625000Y-104550000D03*
X152625000Y-103050000D03*
X151775000Y-104550000D03*
X154775000Y-102050000D03*
X155625000Y-103550000D03*
X155625000Y-102050000D03*
X154775000Y-103550000D03*
X157675000Y-100850000D03*
X158525000Y-102350000D03*
X158525000Y-100850000D03*
X157675000Y-102350000D03*
X160475000Y-98950000D03*
X161325000Y-100450000D03*
X161325000Y-98950000D03*
X160475000Y-100450000D03*
X165725000Y-94950000D03*
X166575000Y-96450000D03*
X166575000Y-94950000D03*
X165725000Y-96450000D03*
X172875000Y-87450000D03*
X173725000Y-88950000D03*
X173725000Y-87450000D03*
X172875000Y-88950000D03*
X177075000Y-80950000D03*
X177925000Y-82450000D03*
X177925000Y-80950000D03*
X177075000Y-82450000D03*
X100575000Y-102750000D03*
X101425000Y-104250000D03*
X101425000Y-102750000D03*
X100575000Y-104250000D03*
D17*
X112850000Y-113800000D03*
X110950000Y-113800000D03*
D18*
X108700000Y-71000000D03*
X108700000Y-73000000D03*
X108700000Y-72000000D03*
X108700000Y-74000000D03*
X108700000Y-75000000D03*
X108700000Y-76000000D03*
X108700000Y-77000000D03*
X108700000Y-78000000D03*
X108700000Y-79000000D03*
X108700000Y-80000000D03*
X108700000Y-81000000D03*
X108700000Y-82000000D03*
X108700000Y-83000000D03*
X108700000Y-84000000D03*
X108700000Y-85000000D03*
M02*
