G04 #@! TF.FileFunction,Paste,Bot*
%FSLAX46Y46*%
G04 Gerber Fmt 4.6, Leading zero omitted, Abs format (unit mm)*
G04 Created by KiCad (PCBNEW 4.0.7+dfsg1-1ubuntu2) date Fri May 11 22:40:50 2018*
%MOMM*%
%LPD*%
G01*
G04 APERTURE LIST*
%ADD10C,0.100000*%
%ADD11R,2.000000X0.900000*%
%ADD12R,4.000000X4.000000*%
%ADD13R,0.400000X0.600000*%
%ADD14R,0.500000X0.600000*%
%ADD15R,1.000000X1.600000*%
%ADD16R,0.600000X0.500000*%
%ADD17R,1.399540X1.899920*%
%ADD18R,0.797560X1.498600*%
%ADD19R,1.798320X1.399540*%
%ADD20R,1.050000X2.100000*%
%ADD21R,1.300000X0.700000*%
%ADD22R,0.700000X1.300000*%
%ADD23R,0.600000X0.400000*%
%ADD24R,0.900000X0.800000*%
%ADD25R,1.060000X0.650000*%
%ADD26R,2.000000X3.800000*%
%ADD27R,2.000000X1.500000*%
%ADD28R,3.000000X1.200000*%
%ADD29R,0.280000X0.300000*%
%ADD30R,0.300000X0.280000*%
%ADD31C,0.240000*%
%ADD32C,0.384000*%
%ADD33R,0.550000X0.300000*%
%ADD34R,1.000000X1.000000*%
G04 APERTURE END LIST*
D10*
D11*
X134500000Y-37570000D03*
X134500000Y-38840000D03*
X134500000Y-40110000D03*
X134500000Y-41380000D03*
X134500000Y-42650000D03*
X134500000Y-43920000D03*
X134500000Y-45190000D03*
X134500000Y-46460000D03*
X134500000Y-47730000D03*
X134500000Y-49000000D03*
X134500000Y-50270000D03*
X134500000Y-51540000D03*
X134500000Y-52810000D03*
X134500000Y-54080000D03*
X134500000Y-55350000D03*
X134500000Y-56620000D03*
X134500000Y-57890000D03*
X134500000Y-59160000D03*
X134500000Y-60430000D03*
X116190000Y-37570000D03*
X116190000Y-38840000D03*
X116190000Y-40110000D03*
X116190000Y-41380000D03*
X116190000Y-45190000D03*
X116190000Y-42650000D03*
X116190000Y-43920000D03*
X116190000Y-46460000D03*
X116190000Y-47730000D03*
X116190000Y-49000000D03*
X116190000Y-50270000D03*
X116190000Y-51540000D03*
X116190000Y-52810000D03*
X116190000Y-54080000D03*
X116190000Y-55350000D03*
X116190000Y-56620000D03*
X116190000Y-57890000D03*
X116190000Y-59160000D03*
X116190000Y-60430000D03*
D12*
X126750000Y-45360000D03*
D13*
X100300000Y-120000000D03*
X101200000Y-120000000D03*
D14*
X97000000Y-83450000D03*
X97000000Y-82350000D03*
D15*
X161950000Y-71350000D03*
X164950000Y-71350000D03*
D16*
X161750000Y-69400000D03*
X162850000Y-69400000D03*
D15*
X109950000Y-156050000D03*
X112950000Y-156050000D03*
D16*
X111400000Y-154200000D03*
X112500000Y-154200000D03*
D15*
X116300000Y-156000000D03*
X119300000Y-156000000D03*
D16*
X116300000Y-154150000D03*
X117400000Y-154150000D03*
D14*
X143900000Y-41900000D03*
X143900000Y-40800000D03*
D15*
X140700000Y-38900000D03*
X143700000Y-38900000D03*
D16*
X140700000Y-36800000D03*
X141800000Y-36800000D03*
D15*
X106983406Y-129731224D03*
X103983406Y-129731224D03*
X106983408Y-132231225D03*
X103983408Y-132231225D03*
D16*
X144050000Y-123100000D03*
X145150000Y-123100000D03*
X142750000Y-123100000D03*
X141650000Y-123100000D03*
D15*
X104400000Y-116900000D03*
X107400000Y-116900000D03*
X93800000Y-115900000D03*
X96800000Y-115900000D03*
X104400000Y-119300000D03*
X107400000Y-119300000D03*
D16*
X142700000Y-121700000D03*
X141600000Y-121700000D03*
X144050000Y-121700000D03*
X145150000Y-121700000D03*
D15*
X96800000Y-118500000D03*
X93800000Y-118500000D03*
D14*
X151400000Y-116500000D03*
X151400000Y-115400000D03*
X152700000Y-116500000D03*
X152700000Y-115400000D03*
D16*
X144850000Y-108250000D03*
X145950000Y-108250000D03*
D15*
X125600000Y-70700000D03*
X128600000Y-70700000D03*
D16*
X125650000Y-68800000D03*
X126750000Y-68800000D03*
D14*
X122200000Y-66650000D03*
X122200000Y-67750000D03*
D17*
X159936220Y-69949760D03*
X146789180Y-70950520D03*
D18*
X155288020Y-73800400D03*
X154188200Y-74001060D03*
X153090920Y-73800400D03*
X151991100Y-73599740D03*
X150891280Y-73800400D03*
X149788920Y-73599740D03*
X148689100Y-73800400D03*
X147589280Y-73800400D03*
D19*
X148389380Y-84097560D03*
X154086600Y-84097560D03*
D20*
X102025000Y-113300000D03*
X99575000Y-113300000D03*
D21*
X97000000Y-85500000D03*
X97000000Y-87400000D03*
D13*
X117700000Y-141150000D03*
X116800000Y-141150000D03*
X116800000Y-135250000D03*
X117700000Y-135250000D03*
D22*
X98950000Y-80550000D03*
X97050000Y-80550000D03*
D23*
X114100000Y-143550000D03*
X114100000Y-142650000D03*
X143900000Y-44050000D03*
X143900000Y-43150000D03*
D13*
X151350000Y-109700000D03*
X152250000Y-109700000D03*
X144950000Y-88350000D03*
X144050000Y-88350000D03*
D23*
X142300000Y-107750000D03*
X142300000Y-108650000D03*
D24*
X118250000Y-139100000D03*
X118250000Y-137200000D03*
X120250000Y-138150000D03*
X114250000Y-139100000D03*
X114250000Y-137200000D03*
X116250000Y-138150000D03*
D25*
X101700000Y-115950000D03*
X101700000Y-116900000D03*
X101700000Y-117850000D03*
X99500000Y-117850000D03*
X99500000Y-115950000D03*
X99500000Y-116900000D03*
D26*
X100200000Y-124700000D03*
D27*
X106500000Y-124700000D03*
X106500000Y-127000000D03*
X106500000Y-122400000D03*
D28*
X123500000Y-140700000D03*
X128500000Y-138200000D03*
X128500000Y-140700000D03*
X128500000Y-135700000D03*
X123500000Y-138200000D03*
X123500000Y-135700000D03*
D14*
X114500000Y-82050000D03*
X114500000Y-83150000D03*
D13*
X138850000Y-45200000D03*
X139750000Y-45200000D03*
D10*
G36*
X106119097Y-160689657D02*
X109118640Y-160637300D01*
X109125599Y-161036019D01*
X106126056Y-161088376D01*
X106119097Y-160689657D01*
X106119097Y-160689657D01*
G37*
G36*
X106107748Y-160039516D02*
X109107291Y-159987159D01*
X109114250Y-160385878D01*
X106114707Y-160438235D01*
X106107748Y-160039516D01*
X106107748Y-160039516D01*
G37*
G36*
X106096444Y-159391914D02*
X109095987Y-159339557D01*
X109102946Y-159738276D01*
X106103403Y-159790633D01*
X106096444Y-159391914D01*
X106096444Y-159391914D01*
G37*
G36*
X106085140Y-158744313D02*
X109084683Y-158691956D01*
X109091642Y-159090675D01*
X106092099Y-159143032D01*
X106085140Y-158744313D01*
X106085140Y-158744313D01*
G37*
G36*
X106073792Y-158094172D02*
X109073335Y-158041815D01*
X109080294Y-158440534D01*
X106080751Y-158492891D01*
X106073792Y-158094172D01*
X106073792Y-158094172D01*
G37*
G36*
X106239895Y-163586129D02*
X106212012Y-161988712D01*
X107611339Y-161964287D01*
X107639222Y-163561704D01*
X106239895Y-163586129D01*
X106239895Y-163586129D01*
G37*
G36*
X106128274Y-157191383D02*
X106100391Y-155593966D01*
X107499718Y-155569541D01*
X107527601Y-157166958D01*
X106128274Y-157191383D01*
X106128274Y-157191383D01*
G37*
G36*
X105182911Y-161756447D02*
X103283281Y-161789605D01*
X103250123Y-159889975D01*
X105149753Y-159856817D01*
X105182911Y-161756447D01*
X105182911Y-161756447D01*
G37*
G36*
X105141065Y-159359053D02*
X103241435Y-159392211D01*
X103208277Y-157492581D01*
X105107907Y-157459423D01*
X105141065Y-159359053D01*
X105141065Y-159359053D01*
G37*
D13*
X144000000Y-83000000D03*
X144900000Y-83000000D03*
D15*
X161950000Y-73800000D03*
X164950000Y-73800000D03*
X161950000Y-76250000D03*
X164950000Y-76250000D03*
D29*
X125587500Y-65087500D03*
X126087500Y-65087500D03*
X125587500Y-66612500D03*
X126087500Y-66612500D03*
X126587500Y-65087500D03*
X126587500Y-66612500D03*
X125087500Y-65087500D03*
X125087500Y-66612500D03*
D30*
X126600000Y-65600000D03*
X126600000Y-66100000D03*
X125075000Y-66100000D03*
X125075000Y-65600000D03*
D31*
X112686008Y-150603418D02*
X112374882Y-150292292D01*
X112332454Y-150956972D02*
X112021328Y-150645846D01*
X111978901Y-151310525D02*
X111667775Y-150999399D01*
X111625348Y-151664079D02*
X111314222Y-151352953D01*
X111271794Y-152017632D02*
X110960668Y-151706506D01*
X110918241Y-152371185D02*
X110607115Y-152060059D01*
X110564687Y-152724739D02*
X110253561Y-152413613D01*
X108910059Y-152724739D02*
X109221185Y-152413613D01*
X108556505Y-152371185D02*
X108867631Y-152060059D01*
X108202952Y-152017632D02*
X108514078Y-151706506D01*
X107849398Y-151664079D02*
X108160524Y-151352953D01*
X107495845Y-151310525D02*
X107806971Y-150999399D01*
X107142292Y-150956972D02*
X107453418Y-150645846D01*
X106788738Y-150603418D02*
X107099864Y-150292292D01*
X107099864Y-149259916D02*
X106788738Y-148948790D01*
X107453418Y-148906362D02*
X107142292Y-148595236D01*
X107806971Y-148552809D02*
X107495845Y-148241683D01*
X108160524Y-148199255D02*
X107849398Y-147888129D01*
X108514078Y-147845702D02*
X108202952Y-147534576D01*
X108867631Y-147492149D02*
X108556505Y-147181023D01*
X109221185Y-147138595D02*
X108910059Y-146827469D01*
X110253561Y-147138595D02*
X110564687Y-146827469D01*
X110607115Y-147492149D02*
X110918241Y-147181023D01*
X110960668Y-147845702D02*
X111271794Y-147534576D01*
X111314222Y-148199255D02*
X111625348Y-147888129D01*
X111667775Y-148552809D02*
X111978901Y-148241683D01*
X112021328Y-148906362D02*
X112332454Y-148595236D01*
X112374882Y-149259916D02*
X112686008Y-148948790D01*
D10*
G36*
X109097795Y-149776104D02*
X108552969Y-150320930D01*
X108008143Y-149776104D01*
X108552969Y-149231278D01*
X109097795Y-149776104D01*
X109097795Y-149776104D01*
G37*
G36*
X110282199Y-148591700D02*
X109737373Y-149136526D01*
X109192547Y-148591700D01*
X109737373Y-148046874D01*
X110282199Y-148591700D01*
X110282199Y-148591700D01*
G37*
G36*
X110282199Y-150960508D02*
X109737373Y-151505334D01*
X109192547Y-150960508D01*
X109737373Y-150415682D01*
X110282199Y-150960508D01*
X110282199Y-150960508D01*
G37*
G36*
X111466603Y-149776104D02*
X110921777Y-150320930D01*
X110376951Y-149776104D01*
X110921777Y-149231278D01*
X111466603Y-149776104D01*
X111466603Y-149776104D01*
G37*
D32*
X99574362Y-84121418D02*
X99775180Y-84322236D01*
X100454710Y-84795290D02*
X100089842Y-85160158D01*
X100171867Y-84512447D02*
X99806999Y-84877315D01*
X100737553Y-85078133D02*
X100372685Y-85443001D01*
X99857204Y-83838575D02*
X100058022Y-84039393D01*
X100981504Y-82700133D02*
X101182322Y-82900951D01*
X101264347Y-82417291D02*
X101465165Y-82618109D01*
X102027315Y-82656999D02*
X101662447Y-83021867D01*
X102310158Y-82939842D02*
X101945290Y-83304710D01*
X102593001Y-83222685D02*
X102228133Y-83587553D01*
X100934835Y-85481891D02*
X101135653Y-85682709D01*
X101217678Y-85199049D02*
X101418496Y-85399867D01*
X102631891Y-83784835D02*
X102832709Y-83985653D01*
X102349049Y-84067678D02*
X102549867Y-84268496D01*
X100167624Y-83583310D02*
X100645628Y-84061314D01*
X101315965Y-84731650D02*
X101680833Y-85096518D01*
X101598808Y-84448808D02*
X101963676Y-84813676D01*
X101881650Y-84165965D02*
X102246518Y-84530833D01*
X100436324Y-83286324D02*
X100801192Y-83651192D01*
X100719167Y-83003482D02*
X101084035Y-83368350D01*
D13*
X104600000Y-150550000D03*
X103700000Y-150550000D03*
D33*
X110700000Y-160700001D03*
X110700000Y-161350001D03*
D13*
X104600000Y-153450000D03*
X103700000Y-153450000D03*
X103700000Y-152000000D03*
X104600000Y-152000000D03*
D33*
X111099995Y-159399997D03*
X111099995Y-158749997D03*
X113700000Y-159525000D03*
X113700000Y-158875000D03*
D13*
X107238031Y-78636737D03*
X106338031Y-78636737D03*
X107238032Y-80800000D03*
X106338032Y-80800000D03*
X139750000Y-69550000D03*
X140650000Y-69550000D03*
X139750000Y-67300000D03*
X140650000Y-67300000D03*
X144000000Y-81200000D03*
X144900000Y-81200000D03*
X143950000Y-72500000D03*
X144850000Y-72500000D03*
X143950000Y-74500000D03*
X144850000Y-74500000D03*
X143950000Y-76200000D03*
X144850000Y-76200000D03*
X143950000Y-77800000D03*
X144850000Y-77800000D03*
X143950000Y-79500000D03*
X144850000Y-79500000D03*
D34*
X111200000Y-54000000D03*
X111200000Y-56000000D03*
M02*
