G04 #@! TF.FileFunction,Profile,NP*
%FSLAX46Y46*%
G04 Gerber Fmt 4.6, Leading zero omitted, Abs format (unit mm)*
G04 Created by KiCad (PCBNEW 4.0.7+dfsg1-1ubuntu2) date Fri May 11 22:40:51 2018*
%MOMM*%
%LPD*%
G01*
G04 APERTURE LIST*
%ADD10C,0.100000*%
%ADD11C,0.150000*%
G04 APERTURE END LIST*
D10*
D11*
X102600000Y-154300000D02*
X102800000Y-165700000D01*
X102500000Y-151500000D02*
X102600000Y-154300000D01*
X144200000Y-160350000D02*
X145350000Y-158900000D01*
X142000000Y-163350000D02*
X144200000Y-160350000D01*
X139950000Y-166200000D02*
X142000000Y-163350000D01*
X164150000Y-83950000D02*
X163800000Y-82150000D01*
X165250000Y-84250000D02*
X164150000Y-83950000D01*
X166350000Y-84700000D02*
X165250000Y-84250000D01*
X167500000Y-85300000D02*
X166350000Y-84700000D01*
X168400000Y-85900000D02*
X167500000Y-85300000D01*
X169050000Y-86350000D02*
X168400000Y-85900000D01*
X172450000Y-85200000D02*
X169050000Y-86350000D01*
X172750000Y-83900000D02*
X172450000Y-85200000D01*
X172850000Y-82450000D02*
X172750000Y-83900000D01*
X172750000Y-80950000D02*
X172850000Y-82450000D01*
X172450000Y-79700000D02*
X172750000Y-80950000D01*
X172050000Y-78600000D02*
X172450000Y-79700000D01*
X171700000Y-77800000D02*
X172050000Y-78600000D01*
X170200000Y-78350000D02*
X171700000Y-77800000D01*
X168050000Y-79500000D02*
X170200000Y-78350000D01*
X166200000Y-80550000D02*
X168050000Y-79500000D01*
X163800000Y-82150000D02*
X166200000Y-80550000D01*
X100500000Y-129900000D02*
X102300000Y-130400000D01*
X99450000Y-129450000D02*
X100500000Y-129900000D01*
X98000000Y-128650000D02*
X99450000Y-129450000D01*
X97050000Y-128050000D02*
X98000000Y-128650000D01*
X96200000Y-127450000D02*
X97050000Y-128050000D01*
X95400000Y-126800000D02*
X96200000Y-127450000D01*
X94500000Y-125850000D02*
X95400000Y-126800000D01*
X93850000Y-124950000D02*
X94500000Y-125850000D01*
X93350000Y-124100000D02*
X93850000Y-124950000D01*
X92500000Y-122350000D02*
X93350000Y-124100000D01*
X91900000Y-120600000D02*
X92500000Y-122350000D01*
X91550000Y-118750000D02*
X91900000Y-120600000D01*
X91500000Y-116950000D02*
X91550000Y-118750000D01*
X91550000Y-115650000D02*
X91500000Y-116950000D01*
X91600000Y-114600000D02*
X91550000Y-115650000D01*
X91800000Y-113650000D02*
X91600000Y-114600000D01*
X92150000Y-112450000D02*
X91800000Y-113650000D01*
X92400000Y-111700000D02*
X92150000Y-112450000D01*
X92700000Y-111050000D02*
X92400000Y-111700000D01*
X93050000Y-110400000D02*
X92700000Y-111050000D01*
X93400000Y-109750000D02*
X93050000Y-110400000D01*
X93800000Y-109050000D02*
X93400000Y-109750000D01*
X95850000Y-106150000D02*
X95600000Y-106600000D01*
X95950000Y-105900000D02*
X95850000Y-106150000D01*
X95600000Y-105750000D02*
X95950000Y-105900000D01*
X94900000Y-107400000D02*
X93800000Y-109050000D01*
X95600000Y-106600000D02*
X94900000Y-107400000D01*
X95200000Y-105550000D02*
X95600000Y-105750000D01*
X93500000Y-104800000D02*
X95200000Y-105550000D01*
X92150000Y-104050000D02*
X93500000Y-104800000D01*
X89300000Y-102050000D02*
X92150000Y-104050000D01*
X86750000Y-100200000D02*
X89300000Y-102050000D01*
X85300000Y-99150000D02*
X86750000Y-100200000D01*
X84000000Y-98200000D02*
X85300000Y-99150000D01*
X82750000Y-97000000D02*
X84000000Y-98200000D01*
X80900000Y-95050000D02*
X82750000Y-97000000D01*
X79150000Y-92900000D02*
X80900000Y-95050000D01*
X77300000Y-90750000D02*
X79150000Y-92900000D01*
X76150000Y-89250000D02*
X77300000Y-90750000D01*
X74850000Y-87450000D02*
X76150000Y-89250000D01*
X74000000Y-86250000D02*
X74850000Y-87450000D01*
X72750000Y-84400000D02*
X74000000Y-86250000D01*
X72050000Y-83200000D02*
X72750000Y-84400000D01*
X71350000Y-81750000D02*
X72050000Y-83200000D01*
X70650000Y-80000000D02*
X71350000Y-81750000D01*
X70300000Y-78500000D02*
X70650000Y-80000000D01*
X70200000Y-77300000D02*
X70300000Y-78500000D01*
X70250000Y-76200000D02*
X70200000Y-77300000D01*
X70350000Y-75500000D02*
X70250000Y-76200000D01*
X70800000Y-74200000D02*
X70350000Y-75500000D01*
X71300000Y-72950000D02*
X70800000Y-74200000D01*
X72000000Y-71650000D02*
X71300000Y-72950000D01*
X72800000Y-70500000D02*
X72000000Y-71650000D01*
X73850000Y-69350000D02*
X72800000Y-70500000D01*
X74800000Y-68400000D02*
X73850000Y-69350000D01*
X75400000Y-67750000D02*
X74800000Y-68400000D01*
X76400000Y-67100000D02*
X75400000Y-67750000D01*
X77600000Y-66750000D02*
X76400000Y-67100000D01*
X79700000Y-66550000D02*
X77600000Y-66750000D01*
X82000000Y-66650000D02*
X79700000Y-66550000D01*
X84550000Y-67150000D02*
X82000000Y-66650000D01*
X86050000Y-67500000D02*
X84550000Y-67150000D01*
X90150000Y-67750000D02*
X86050000Y-67500000D01*
X92150000Y-67800000D02*
X90150000Y-67750000D01*
X95400000Y-67800000D02*
X92150000Y-67800000D01*
X96100000Y-67800000D02*
X95400000Y-67800000D01*
X96200000Y-67250000D02*
X96100000Y-67800000D01*
X96050000Y-65250000D02*
X96200000Y-67250000D01*
X95800000Y-62100000D02*
X96050000Y-65250000D01*
X95650000Y-59600000D02*
X95800000Y-62100000D01*
X95350000Y-56900000D02*
X95650000Y-59600000D01*
X95000000Y-55250000D02*
X95350000Y-56900000D01*
X94750000Y-54000000D02*
X95000000Y-55250000D01*
X94750000Y-53650000D02*
X94750000Y-54000000D01*
X94850000Y-53400000D02*
X94750000Y-53650000D01*
X95200000Y-53150000D02*
X94850000Y-53400000D01*
X95850000Y-52800000D02*
X95200000Y-53150000D01*
X96700000Y-52350000D02*
X95850000Y-52800000D01*
X97100000Y-52150000D02*
X96700000Y-52350000D01*
X97250000Y-51900000D02*
X97100000Y-52150000D01*
X97300000Y-49250000D02*
X97250000Y-51900000D01*
X97250000Y-46700000D02*
X97300000Y-49250000D01*
X97050000Y-44950000D02*
X97250000Y-46700000D01*
X96850000Y-43750000D02*
X97050000Y-44950000D01*
X96800000Y-43150000D02*
X96850000Y-43750000D01*
X97000000Y-42650000D02*
X96800000Y-43150000D01*
X98800000Y-40850000D02*
X97000000Y-42650000D01*
X100200000Y-39700000D02*
X98800000Y-40850000D01*
X101800000Y-37750000D02*
X100200000Y-39700000D01*
X103950000Y-34900000D02*
X101800000Y-37750000D01*
X105000000Y-33500000D02*
X103950000Y-34900000D01*
X105850000Y-32400000D02*
X105000000Y-33500000D01*
X106600000Y-31500000D02*
X105850000Y-32400000D01*
X107400000Y-30200000D02*
X106600000Y-31500000D01*
X107850000Y-29350000D02*
X107400000Y-30200000D01*
X108350000Y-28450000D02*
X107850000Y-29350000D01*
X108600000Y-28000000D02*
X108350000Y-28450000D01*
X109000000Y-27800000D02*
X108600000Y-28000000D01*
X110050000Y-27350000D02*
X109000000Y-27800000D01*
X111000000Y-27050000D02*
X110050000Y-27350000D01*
X112050000Y-26800000D02*
X111000000Y-27050000D01*
X112800000Y-26650000D02*
X112050000Y-26800000D01*
X113600000Y-26600000D02*
X112800000Y-26650000D01*
X114300000Y-26750000D02*
X113600000Y-26600000D01*
X116600000Y-27600000D02*
X114300000Y-26750000D01*
X120350000Y-28850000D02*
X116600000Y-27600000D01*
X122600000Y-29600000D02*
X120350000Y-28850000D01*
X123500000Y-29850000D02*
X122600000Y-29600000D01*
X131950000Y-29850000D02*
X123500000Y-29850000D01*
X132500000Y-29600000D02*
X131950000Y-29850000D01*
X134300000Y-28600000D02*
X132500000Y-29600000D01*
X136050000Y-27600000D02*
X134300000Y-28600000D01*
X136750000Y-27200000D02*
X136050000Y-27600000D01*
X137350000Y-27050000D02*
X136750000Y-27200000D01*
X137850000Y-27050000D02*
X137350000Y-27050000D01*
X139350000Y-27250000D02*
X137850000Y-27050000D01*
X141100000Y-27650000D02*
X139350000Y-27250000D01*
X142550000Y-28050000D02*
X141100000Y-27650000D01*
X144300000Y-28650000D02*
X142550000Y-28050000D01*
X145000000Y-28950000D02*
X144300000Y-28650000D01*
X145500000Y-29250000D02*
X145000000Y-28950000D01*
X145800000Y-29650000D02*
X145500000Y-29250000D01*
X146050000Y-30250000D02*
X145800000Y-29650000D01*
X146250000Y-30850000D02*
X146050000Y-30250000D01*
X146250000Y-31500000D02*
X146250000Y-30850000D01*
X146150000Y-33000000D02*
X146250000Y-31500000D01*
X146000000Y-34400000D02*
X146150000Y-33000000D01*
X145850000Y-36750000D02*
X146000000Y-34400000D01*
X145800000Y-39100000D02*
X145850000Y-36750000D01*
X145850000Y-39650000D02*
X145800000Y-39100000D01*
X145950000Y-39900000D02*
X145850000Y-39650000D01*
X146450000Y-39750000D02*
X145950000Y-39900000D01*
X147000000Y-39550000D02*
X146450000Y-39750000D01*
X147500000Y-39450000D02*
X147000000Y-39550000D01*
X147950000Y-39300000D02*
X147500000Y-39450000D01*
X148200000Y-39300000D02*
X147950000Y-39300000D01*
X148400000Y-39400000D02*
X148200000Y-39300000D01*
X148550000Y-40000000D02*
X148400000Y-39400000D01*
X148600000Y-40550000D02*
X148550000Y-40000000D01*
X151500000Y-40700000D02*
X148600000Y-40550000D01*
X152750000Y-40850000D02*
X151500000Y-40700000D01*
X153600000Y-40950000D02*
X152750000Y-40850000D01*
X153950000Y-41000000D02*
X153600000Y-40950000D01*
X154250000Y-41050000D02*
X153950000Y-41000000D01*
X154500000Y-41200000D02*
X154250000Y-41050000D01*
X154700000Y-41450000D02*
X154500000Y-41200000D01*
X154900000Y-42000000D02*
X154700000Y-41450000D01*
X155450000Y-43600000D02*
X154900000Y-42000000D01*
X156000000Y-45100000D02*
X155450000Y-43600000D01*
X156200000Y-45550000D02*
X156000000Y-45100000D01*
X156200000Y-45950000D02*
X156200000Y-45550000D01*
X156200000Y-47800000D02*
X156200000Y-45950000D01*
X156050000Y-50150000D02*
X156200000Y-47800000D01*
X155850000Y-52900000D02*
X156050000Y-50150000D01*
X155850000Y-53300000D02*
X155850000Y-52900000D01*
X156000000Y-53350000D02*
X155850000Y-53300000D01*
X157700000Y-53650000D02*
X156000000Y-53350000D01*
X157950000Y-53750000D02*
X157700000Y-53650000D01*
X158100000Y-54000000D02*
X157950000Y-53750000D01*
X158100000Y-54350000D02*
X158100000Y-54000000D01*
X157750000Y-56350000D02*
X158100000Y-54350000D01*
X157350000Y-59150000D02*
X157750000Y-56350000D01*
X157100000Y-61200000D02*
X157350000Y-59150000D01*
X157000000Y-64300000D02*
X157100000Y-61200000D01*
X157050000Y-67900000D02*
X157000000Y-64300000D01*
X158700000Y-67900000D02*
X157050000Y-67900000D01*
X161250000Y-67900000D02*
X158700000Y-67900000D01*
X162550000Y-67750000D02*
X161250000Y-67900000D01*
X164250000Y-67500000D02*
X162550000Y-67750000D01*
X165800000Y-67150000D02*
X164250000Y-67500000D01*
X166150000Y-67150000D02*
X165800000Y-67150000D01*
X166250000Y-67200000D02*
X166150000Y-67150000D01*
X166300000Y-67550000D02*
X166250000Y-67200000D01*
X166300000Y-68600000D02*
X166300000Y-67550000D01*
X166350000Y-68850000D02*
X166300000Y-68600000D01*
X166450000Y-68950000D02*
X166350000Y-68850000D01*
X166600000Y-69000000D02*
X166450000Y-68950000D01*
X166800000Y-69000000D02*
X166600000Y-69000000D01*
X168100000Y-67900000D02*
X166800000Y-69000000D01*
X169800000Y-66550000D02*
X168100000Y-67900000D01*
X170150000Y-66400000D02*
X169800000Y-66550000D01*
X171400000Y-66600000D02*
X170150000Y-66400000D01*
X173650000Y-66900000D02*
X171400000Y-66600000D01*
X175500000Y-67200000D02*
X173650000Y-66900000D01*
X176600000Y-67400000D02*
X175500000Y-67200000D01*
X177700000Y-67750000D02*
X176600000Y-67400000D01*
X178300000Y-68050000D02*
X177700000Y-67750000D01*
X178800000Y-68500000D02*
X178300000Y-68050000D01*
X179450000Y-69300000D02*
X178800000Y-68500000D01*
X180100000Y-70300000D02*
X179450000Y-69300000D01*
X180550000Y-71100000D02*
X180100000Y-70300000D01*
X181150000Y-72300000D02*
X180550000Y-71100000D01*
X181600000Y-73350000D02*
X181150000Y-72300000D01*
X181900000Y-74250000D02*
X181600000Y-73350000D01*
X182200000Y-75400000D02*
X181900000Y-74250000D01*
X182350000Y-76650000D02*
X182200000Y-75400000D01*
X182400000Y-77500000D02*
X182350000Y-76650000D01*
X182450000Y-78900000D02*
X182400000Y-77500000D01*
X182400000Y-79650000D02*
X182450000Y-78900000D01*
X182400000Y-80050000D02*
X182400000Y-79650000D01*
X181950000Y-81150000D02*
X182400000Y-80050000D01*
X181250000Y-82550000D02*
X181950000Y-81150000D01*
X180350000Y-84000000D02*
X181250000Y-82550000D01*
X179800000Y-84750000D02*
X180350000Y-84000000D01*
X179150000Y-85550000D02*
X179800000Y-84750000D01*
X178600000Y-86200000D02*
X179150000Y-85550000D01*
X177250000Y-87950000D02*
X178600000Y-86200000D01*
X175700000Y-89950000D02*
X177250000Y-87950000D01*
X174750000Y-91250000D02*
X175700000Y-89950000D01*
X174350000Y-91800000D02*
X174750000Y-91250000D01*
X172750000Y-91750000D02*
X174350000Y-91800000D01*
X171650000Y-91750000D02*
X172750000Y-91750000D01*
X170900000Y-91800000D02*
X171650000Y-91750000D01*
X172200000Y-92100000D02*
X170900000Y-91800000D01*
X172550000Y-93100000D02*
X172200000Y-92100000D01*
X172650000Y-93450000D02*
X172550000Y-93100000D01*
X172800000Y-93700000D02*
X172650000Y-93450000D01*
X172750000Y-93900000D02*
X172800000Y-93700000D01*
X172250000Y-94600000D02*
X172750000Y-93900000D01*
X171450000Y-95550000D02*
X172250000Y-94600000D01*
X170400000Y-96700000D02*
X171450000Y-95550000D01*
X169000000Y-98000000D02*
X170400000Y-96700000D01*
X167000000Y-99550000D02*
X169000000Y-98000000D01*
X164900000Y-101050000D02*
X167000000Y-99550000D01*
X162800000Y-102550000D02*
X164900000Y-101050000D01*
X160300000Y-104300000D02*
X162800000Y-102550000D01*
X159100000Y-105100000D02*
X160300000Y-104300000D01*
X157750000Y-105800000D02*
X159100000Y-105100000D01*
X157200000Y-105900000D02*
X157750000Y-105800000D01*
X157200000Y-106750000D02*
X157200000Y-105900000D01*
X157250000Y-107900000D02*
X157200000Y-106750000D01*
X157300000Y-108400000D02*
X157250000Y-107900000D01*
X157500000Y-108800000D02*
X157300000Y-108400000D01*
X158200000Y-110150000D02*
X157500000Y-108800000D01*
X158750000Y-111600000D02*
X158200000Y-110150000D01*
X159050000Y-112850000D02*
X158750000Y-111600000D01*
X159200000Y-113500000D02*
X159050000Y-112850000D01*
X159200000Y-113850000D02*
X159200000Y-113500000D01*
X159050000Y-114100000D02*
X159200000Y-113850000D01*
X159200000Y-114550000D02*
X159050000Y-114100000D01*
X159200000Y-115300000D02*
X159200000Y-114550000D01*
X159000000Y-116600000D02*
X159200000Y-115300000D01*
X158550000Y-118300000D02*
X159000000Y-116600000D01*
X158050000Y-119700000D02*
X158550000Y-118300000D01*
X157300000Y-121300000D02*
X158050000Y-119700000D01*
X156250000Y-122950000D02*
X157300000Y-121300000D01*
X155200000Y-124100000D02*
X156250000Y-122950000D01*
X154300000Y-124950000D02*
X155200000Y-124100000D01*
X154250000Y-126300000D02*
X154300000Y-124950000D01*
X154200000Y-127700000D02*
X154250000Y-126300000D01*
X154050000Y-127900000D02*
X154200000Y-127700000D01*
X153050000Y-129800000D02*
X154050000Y-127900000D01*
X152450000Y-131000000D02*
X153050000Y-129800000D01*
X152050000Y-131850000D02*
X152450000Y-131000000D01*
X151900000Y-132300000D02*
X152050000Y-131850000D01*
X151900000Y-133100000D02*
X151900000Y-132300000D01*
X151950000Y-134600000D02*
X151900000Y-133100000D01*
X151900000Y-136050000D02*
X151950000Y-134600000D01*
X151850000Y-136650000D02*
X151900000Y-136050000D01*
X151700000Y-137250000D02*
X151850000Y-136650000D01*
X151250000Y-137950000D02*
X151700000Y-137250000D01*
X150650000Y-138700000D02*
X151250000Y-137950000D01*
X150200000Y-139250000D02*
X150650000Y-138700000D01*
X150450000Y-140100000D02*
X150200000Y-139250000D01*
X150600000Y-140800000D02*
X150450000Y-140100000D01*
X150650000Y-141200000D02*
X150600000Y-140800000D01*
X150300000Y-141800000D02*
X150650000Y-141200000D01*
X149800000Y-142450000D02*
X150300000Y-141800000D01*
X149950000Y-142550000D02*
X149800000Y-142450000D01*
X150450000Y-143100000D02*
X149950000Y-142550000D01*
X150700000Y-143500000D02*
X150450000Y-143100000D01*
X150700000Y-144050000D02*
X150700000Y-143500000D01*
X150250000Y-145600000D02*
X150700000Y-144050000D01*
X149900000Y-147000000D02*
X150250000Y-145600000D01*
X149700000Y-148300000D02*
X149900000Y-147000000D01*
X149700000Y-149450000D02*
X149700000Y-148300000D01*
X149800000Y-151650000D02*
X149700000Y-149450000D01*
X149900000Y-153100000D02*
X149800000Y-151650000D01*
X149050000Y-154450000D02*
X149900000Y-153100000D01*
X147800000Y-155900000D02*
X149050000Y-154450000D01*
X145350000Y-158900000D02*
X147800000Y-155900000D01*
X137800000Y-168700000D02*
X139950000Y-166200000D01*
X137400000Y-168900000D02*
X137800000Y-168700000D01*
X136950000Y-169500000D02*
X137400000Y-168900000D01*
X135350000Y-170850000D02*
X136950000Y-169500000D01*
X134300000Y-171650000D02*
X135350000Y-170850000D01*
X133350000Y-172000000D02*
X134300000Y-171650000D01*
X131650000Y-172350000D02*
X133350000Y-172000000D01*
X129550000Y-172600000D02*
X131650000Y-172350000D01*
X128000000Y-172850000D02*
X129550000Y-172600000D01*
X126500000Y-173000000D02*
X128000000Y-172850000D01*
X124800000Y-173000000D02*
X126500000Y-173000000D01*
X123900000Y-172950000D02*
X124800000Y-173000000D01*
X123500000Y-172900000D02*
X123900000Y-172950000D01*
X123350000Y-173000000D02*
X123500000Y-172900000D01*
X123100000Y-173050000D02*
X123350000Y-173000000D01*
X122900000Y-173000000D02*
X123100000Y-173050000D01*
X122600000Y-172850000D02*
X122900000Y-173000000D01*
X122200000Y-172750000D02*
X122600000Y-172850000D01*
X122150000Y-172800000D02*
X122200000Y-172750000D01*
X121850000Y-173300000D02*
X122150000Y-172800000D01*
X121450000Y-173700000D02*
X121850000Y-173300000D01*
X121000000Y-173900000D02*
X121450000Y-173700000D01*
X120400000Y-173950000D02*
X121000000Y-173900000D01*
X119800000Y-173900000D02*
X120400000Y-173950000D01*
X119350000Y-173650000D02*
X119800000Y-173900000D01*
X119050000Y-173350000D02*
X119350000Y-173650000D01*
X118850000Y-173100000D02*
X119050000Y-173350000D01*
X117750000Y-173100000D02*
X118850000Y-173100000D01*
X115900000Y-173050000D02*
X117750000Y-173100000D01*
X114000000Y-173000000D02*
X115900000Y-173050000D01*
X112350000Y-172900000D02*
X114000000Y-173000000D01*
X111150000Y-172750000D02*
X112350000Y-172900000D01*
X109950000Y-172550000D02*
X111150000Y-172750000D01*
X108650000Y-172300000D02*
X109950000Y-172550000D01*
X107700000Y-172050000D02*
X108650000Y-172300000D01*
X106350000Y-171600000D02*
X107700000Y-172050000D01*
X104900000Y-170950000D02*
X106350000Y-171600000D01*
X104050000Y-170450000D02*
X104900000Y-170950000D01*
X103450000Y-170000000D02*
X104050000Y-170450000D01*
X103000000Y-169450000D02*
X103450000Y-170000000D01*
X102900000Y-169100000D02*
X103000000Y-169450000D01*
X102800000Y-165700000D02*
X102900000Y-169100000D01*
X102400000Y-148500000D02*
X102500000Y-151500000D01*
X102350000Y-146650000D02*
X102400000Y-148500000D01*
X102350000Y-135200000D02*
X102350000Y-146650000D01*
X102300000Y-130400000D02*
X102350000Y-135200000D01*
M02*
