M48
;DRILL file {KiCad 4.0.7+dfsg1-1ubuntu2} date Fri May 11 22:40:53 2018
;FORMAT={-:-/ absolute / inch / decimal}
FMAT,2
INCH,TZ
T1C0.012
T2C0.039
T3C0.039
T4C0.043
T5C0.087
T6C0.020
T7C0.059
T8C0.197
%
G90
G05
M72
T1
X2.9528Y-3.1496
X3.0413Y-3.2835
X3.1299Y-3.4134
X3.1988Y-3.5551
X3.2992Y-3.687
X3.3465Y-3.2421
X3.4232Y-3.7801
X3.5039Y-3.0925
X3.5118Y-3.4016
X3.5138Y-3.3268
X3.5453Y-3.8622
X3.6772Y-3.2441
X3.748Y-4.563
X3.748Y-4.6654
X3.7677Y-4.9094
X3.7953Y-4.0039
X3.7992Y-4.2756
X3.8374Y-4.2494
X3.8669Y-4.2384
X3.8701Y-3.1102
X3.8858Y-5.0236
X3.8964Y-4.2273
X3.9154Y-4.0335
X3.9263Y-4.2175
X3.9578Y-4.2175
X3.976Y-3.8805
X3.9764Y-3.5945
X3.9764Y-3.6339
X3.9764Y-3.685
X3.9764Y-3.7362
X4.0079Y-3.7126
X4.0098Y-3.6614
X4.0394Y-3.8583
X4.0512Y-4.8189
X4.056Y-4.0923
X4.0571Y-3.5669
X4.0687Y-2.6634
X4.0726Y-2.5605
X4.0757Y-3.5239
X4.0787Y-5.7919
X4.0864Y-2.6188
X4.0915Y-3.2008
X4.0945Y-5.0039
X4.1004Y-2.5118
X4.1024Y-5.7362
X4.1057Y-3.5112
X4.1063Y-4.4921
X4.1063Y-5.878
X4.1171Y-2.5582
X4.1181Y-2.4429
X4.1181Y-3.3451
X4.122Y-3.0866
X4.1417Y-3.248
X4.1417Y-3.5098
X4.1417Y-5.3189
X4.1516Y-2.4764
X4.1673Y-3.5354
X4.1673Y-4.0901
X4.1679Y-3.6909
X4.1693Y-3.3031
X4.1713Y-2.4311
X4.1772Y-5.3031
X4.216Y-5.288
X4.2205Y-1.7362
X4.2205Y-1.7795
X4.2264Y-3.7205
X4.2283Y-3.5118
X4.2362Y-2.4685
X4.248Y-5.2677
X4.2739Y-5.9008
X4.2756Y-2.4705
X4.288Y-5.2657
X4.3051Y-3.7553
X4.3051Y-4.124
X4.315Y-2.374
X4.3163Y-5.8502
X4.3163Y-5.2805
X4.3189Y-2.4685
X4.3228Y-2.6772
X4.3244Y-5.9431
X4.3248Y-6.191
X4.3307Y-6.3937
X4.3465Y-1.5551
X4.3622Y-1.4961
X4.3661Y-4.8189
X4.3668Y-5.8926
X4.3681Y-4.6516
X4.3702Y-6.2363
X4.3819Y-2.6181
X4.3858Y-2.0512
X4.3917Y-6.3563
X4.3937Y-6.0295
X4.4311Y-5.5846
X4.4606Y-6.5512
X4.4646Y-3.6378
X4.4665Y-3.2303
X4.4744Y-6.0748
X4.4764Y-6.7008
X4.4843Y-2.6496
X4.4882Y-2.7205
X4.4961Y-6.3268
X4.5039Y-3.4803
X4.5079Y-2.9921
X4.5079Y-3.3268
X4.5118Y-6.252
X4.5295Y-6.0276
X4.5301Y-6.0748
X4.5512Y-2.748
X4.5512Y-3.9528
X4.5604Y-3.0709
X4.5748Y-4.0394
X4.5841Y-3.1004
X4.5945Y-3.1437
X4.6378Y-2.748
X4.6378Y-3.1457
X4.6949Y-5.3228
X4.7008Y-6.5571
X4.7185Y-6.7323
X4.7598Y-2.622
X4.7795Y-6.1417
X4.7835Y-2.3622
X4.7913Y-3.4252
X4.7972Y-4.1496
X4.8087Y-3.745
X4.811Y-2.752
X4.815Y-3.7998
X4.8386Y-6.4606
X4.8543Y-2.3622
X4.8799Y-4.1063
X4.8826Y-2.783
X4.8858Y-4.4606
X4.8901Y-2.957
X4.8996Y-2.5138
X4.9266Y-4.0787
X4.937Y-2.3622
X4.937Y-4.1496
X4.9409Y-3.5984
X4.9488Y-3.8427
X4.9626Y-2.5157
X4.9626Y-5.4409
X5.Y-4.7087
X5.Y-4.6339
X5.Y-4.6732
X5.0079Y-4.5945
X5.0197Y-2.5157
X5.0236Y-4.4488
X5.0236Y-2.3622
X5.0236Y-4.3031
X5.0236Y-4.4016
X5.0249Y-4.3438
X5.0276Y-4.2598
X5.0276Y-4.563
X5.0295Y-2.4488
X5.0453Y-2.5827
X5.0453Y-2.622
X5.063Y-2.7087
X5.0748Y-4.2559
X5.0984Y-4.4016
X5.0984Y-4.4488
X5.0984Y-4.4961
X5.1142Y-3.8805
X5.122Y-2.3622
X5.1575Y-2.9409
X5.1575Y-2.8425
X5.1811Y-4.7244
X5.189Y-3.2598
X5.189Y-4.2362
X5.189Y-4.6634
X5.2126Y-4.5551
X5.2244Y-2.3858
X5.2461Y-3.7559
X5.2539Y-4.9902
X5.256Y-5.0216
X5.2618Y-4.815
X5.2795Y-3.6648
X5.2913Y-4.9994
X5.3069Y-4.4371
X5.3346Y-3.6358
X5.3386Y-4.2598
X5.3475Y-4.0384
X5.3583Y-3.9488
X5.3976Y-4.3051
X5.3996Y-4.8878
X5.4154Y-4.8445
X5.4213Y-2.4016
X5.4213Y-2.437
X5.4291Y-3.7047
X5.4331Y-1.9291
X5.4331Y-4.685
X5.4488Y-2.3661
X5.4567Y-2.6496
X5.4567Y-2.7362
X5.4567Y-3.878
X5.4567Y-4.7598
X5.4705Y-4.1004
X5.4724Y-2.4016
X5.4803Y-4.3386
X5.4882Y-1.4488
X5.5079Y-2.4016
X5.5079Y-4.8839
X5.5433Y-2.4016
X5.5748Y-2.4016
X5.5827Y-3.878
X5.6024Y-4.315
X5.6085Y-4.0827
X5.6102Y-2.0197
X5.6102Y-3.7441
X5.6102Y-4.5138
X5.6102Y-4.5846
X5.622Y-1.874
X5.622Y-2.8543
X5.622Y-2.9331
X5.622Y-3.
X5.622Y-3.063
X5.622Y-3.1299
X5.622Y-3.1969
X5.622Y-3.2677
X5.622Y-3.4843
X5.6378Y-4.3701
X5.6396Y-4.7538
X5.6417Y-2.3858
X5.6535Y-1.4488
X5.6654Y-1.7717
X5.6811Y-4.5138
X5.6811Y-4.5846
X5.685Y-4.1181
X5.6969Y-4.7402
X5.7205Y-2.3858
X5.7431Y-2.6299
X5.752Y-3.5276
X5.7756Y-4.3799
X5.7756Y-4.8799
X5.7913Y-3.063
X5.7953Y-3.5276
X5.7972Y-2.3957
X5.7992Y-1.6063
X5.815Y-3.6319
X5.815Y-3.7047
X5.815Y-4.0906
X5.815Y-4.1654
X5.8268Y-4.2677
X5.8378Y-3.7998
X5.8384Y-3.6602
X5.8386Y-3.5276
X5.8386Y-4.4764
X5.8445Y-3.2283
X5.8465Y-3.7047
X5.8539Y-4.5699
X5.8543Y-2.6575
X5.8858Y-3.7165
X5.8917Y-3.5295
X5.8976Y-2.7992
X5.9055Y-4.5394
X5.9094Y-3.2579
X5.9094Y-4.4016
X5.9118Y-3.8816
X5.9173Y-3.4803
X5.918Y-3.7592
X5.9291Y-3.8228
X5.9331Y-3.7283
X5.937Y-2.7402
X5.937Y-4.0669
X5.9382Y-4.2612
X5.9508Y-4.7953
X5.9688Y-3.2542
X5.9783Y-4.4705
X5.9821Y-3.553
X5.9921Y-3.2835
X5.9941Y-3.4823
X5.9984Y-3.9797
X6.0157Y-3.8701
X6.0276Y-4.3189
X6.0303Y-4.2165
X6.0496Y-4.0374
X6.0748Y-4.2067
X6.094Y-4.2672
X6.1046Y-4.2375
X6.1195Y-4.3279
X6.1614Y-3.9724
X6.2244Y-2.752
X6.2638Y-3.9213
X6.2677Y-2.8386
X6.2677Y-2.9055
X6.2677Y-3.
X6.3858Y-3.7894
X6.41Y-3.5572
X6.482Y-3.7408
X6.5787Y-3.6614
X6.5848Y-3.6304
X6.6772Y-2.8071
X6.7126Y-2.9055
X6.7611Y-3.4619
X6.7795Y-2.9646
X6.8465Y-3.3976
X6.9407Y-3.1893
X6.9567Y-3.1299
X7.0079Y-3.1102
X7.0906Y-3.1614
T2
X4.5283Y-6.7012
X4.5683Y-6.4012
X4.6083Y-6.7012
T3
X3.9264Y-1.7846
X3.9264Y-1.8846
X4.0264Y-1.7846
X4.0264Y-1.8846
X5.9657Y-1.7807
X5.9657Y-1.8807
X6.0657Y-1.7807
X6.0657Y-1.8807
T4
X4.6732Y-5.0236
X5.185Y-5.0236
T5
X4.2224Y-6.6024
X4.6083Y-5.8189
X5.1319Y-6.6555
X5.5551Y-5.8622
T7
X4.Y-2.3386
X4.Y-3.8031
X5.9961Y-2.3386
X5.9961Y-3.8031
T8
X3.0906Y-2.7953
X6.8307Y-2.7953
T6
X4.1139Y-6.1543G85X4.0863Y-6.1548
G05
X4.1184Y-6.4141G85X4.0909Y-6.4145
G05
T0
M30
